<?xml version="1.0" encoding="UTF-8"?>
<!-- Heraldic SVG for a web club with a strong Russian community -->
<svg xmlns="http://www.w3.org/2000/svg" viewBox="0 0 600 700" role="img" aria-labelledby="title desc">
  <title id="title">Web Club Heraldic Emblem</title>
  <desc id="desc">A heraldic shield with web coding elements, laurel wreath, and colors inspired by the Russian community.</desc>

  <defs>
    <!-- Colors and finishes -->
    <linearGradient id="gold" x1="0" y1="0" x2="1" y2="1">
      <stop offset="0" stop-color="#F9D976"/>
      <stop offset="0.4" stop-color="#F6C04C"/>
      <stop offset="0.7" stop-color="#D6952E"/>
      <stop offset="1" stop-color="#975A16"/>
    </linearGradient>

    <linearGradient id="steel" x1="0" y1="0" x2="0" y2="1">
      <stop offset="0" stop-color="#EFF3F8"/>
      <stop offset="1" stop-color="#C8D0DA"/>
    </linearGradient>

    <linearGradient id="paleRB" x1="0" y1="0" x2="1" y2="0">
      <stop offset="0" stop-color="#1E3A8A"/>  <!-- deep blue -->
      <stop offset="0.49" stop-color="#1E3A8A"/>
      <stop offset="0.51" stop-color="#B91C1C"/> <!-- deep red -->
      <stop offset="1" stop-color="#B91C1C"/>
    </linearGradient>

    <radialGradient id="innerGlow" cx="50%" cy="35%" r="70%">
      <stop offset="0" stop-color="#FFFFFF" stop-opacity="0.6"/>
      <stop offset="1" stop-color="#000000" stop-opacity="0"/>
    </radialGradient>

    <!-- Drop shadow -->
    <filter id="ds" x="-20%" y="-20%" width="140%" height="140%">
      <feDropShadow dx="0" dy="10" stdDeviation="10" flood-color="#000" flood-opacity="0.25"/>
    </filter>

    <!-- Inner shadow (subtle) -->
    <filter id="innerShadow" x="-50%" y="-50%" width="200%" height="200%">
      <feOffset dx="0" dy="2"/>
      <feGaussianBlur stdDeviation="4" result="blur"/>
      <feComposite in="SourceGraphic" in2="blur" operator="arithmetic" k2="-1" k3="1"/>
      <feColorMatrix type="matrix" values="0 0 0 0 0
                                           0 0 0 0 0
                                           0 0 0 0 0
                                           0 0 0 0.4 0"/>
    </filter>

    <!-- Shield paths -->
    <path id="shield-outer" d="M300,60
      C210,60 140,120 140,200
      v160
      c0,130 160,210 160,210
      s160,-80 160,-210
      V200
      C460,120 390,60 300,60
      Z"/>
    <path id="shield-inner" d="M300,85
      C220,85 160,140 160,210
      v145
      c0,115 140,185 140,185
      s140,-70 140,-185
      V210
      C440,140 380,85 300,85
      Z"/>

    <!-- Laurel leaf -->
    <path id="leaf" d="M0,0 C10,-6 28,-6 38,4 C28,16 10,16 0,8 Z" fill="#1F7A34" stroke="#145523" stroke-width="1.5" stroke-linejoin="round"/>

    <!-- Code brackets symbol -->
    <g id="brackets" fill="none" stroke="#F9FAFB" stroke-width="14" stroke-linecap="round" stroke-linejoin="round">
      <path d="M-60,-60 L60,60" stroke-width="26" stroke-linecap="butt" stroke-linejoin="miter"/>
      <path d="M-60,60 L60,-60" stroke-width="26" stroke-linecap="butt" stroke-linejoin="miter"/>
    </g>

    <!-- Globe lines symbol -->
    <g id="globe" fill="none" stroke="#0F172A" stroke-width="2">
      <circle cx="0" cy="0" r="28" fill="#F1F5F9"/>
      <path d="M-28,0 H28"/>
      <path d="M0,-28 V28"/>
      <path d="M-25,-10 C-10,-6 10,-6 25,-10"/>
      <path d="M-25,10 C-10,6 10,6 25,10"/>
      <ellipse cx="0" cy="0" rx="18" ry="28"/>
    </g>
  </defs>

  <!-- Background -->
  <rect x="0" y="0" width="100%" height="100%" fill="#0B1220"/>

  <!-- Wreath -->
  <g transform="translate(110,320) rotate(-18)" filter="url(#ds)">
    <path d="M0,0 C-10,60 -10,120 10,180" fill="none" stroke="#145523" stroke-width="8" stroke-linecap="round"/>
    <g>
      <use href="#leaf" transform="translate(-6,16) rotate(-18)"/>
      <use href="#leaf" transform="translate(-10,42) rotate(-8)"/>
      <use href="#leaf" transform="translate(-12,68) rotate(2)"/>
      <use href="#leaf" transform="translate(-10,94) rotate(12)"/>
      <use href="#leaf" transform="translate(-4,120) rotate(22)"/>
      <use href="#leaf" transform="translate(6,146) rotate(32)"/>
      <use href="#leaf" transform="translate(18,172) rotate(42)"/>
    </g>
  </g>
  <g transform="translate(490,320) scale(-1,1) rotate(-18)" filter="url(#ds)">
    <path d="M0,0 C-10,60 -10,120 10,180" fill="none" stroke="#145523" stroke-width="8" stroke-linecap="round"/>
    <g>
      <use href="#leaf" transform="translate(-6,16) rotate(-18)"/>
      <use href="#leaf" transform="translate(-10,42) rotate(-8)"/>
      <use href="#leaf" transform="translate(-12,68) rotate(2)"/>
      <use href="#leaf" transform="translate(-10,94) rotate(12)"/>
      <use href="#leaf" transform="translate(-4,120) rotate(22)"/>
      <use href="#leaf" transform="translate(6,146) rotate(32)"/>
      <use href="#leaf" transform="translate(18,172) rotate(42)"/>
    </g>
  </g>

  <!-- Crest medallion -->
  <g transform="translate(300,80)" filter="url(#ds)">
    <circle r="42" fill="url(#gold)" stroke="#7C4A0E" stroke-width="3"/>
    <g transform="scale(0.9)">
      <use href="#globe"/>
    </g>
  </g>

  <!-- Shield base with gold rim -->
  <g filter="url(#ds)">
    <use href="#shield-outer" fill="url(#gold)"/>
    <use href="#shield-inner" fill="url(#steel)" stroke="#8C6230" stroke-width="2" filter="url(#innerShadow)"/>
    <!-- Inner field clipped to shield -->
    <clipPath id="clip-shield">
      <use href="#shield-inner"/>
    </clipPath>
    <g clip-path="url(#clip-shield)">
      <!-- Russian-inspired per pale (blue/red) with subtle glow -->
      <use href="#shield-inner" fill="url(#paleRB)"/>
      <rect x="140" y="85" width="320" height="370" fill="url(#innerGlow)"/>
      <!-- Argent web network -->
      <g stroke="#F8FAFC" stroke-opacity="0.7">
        <g stroke-width="3">
          <path d="M160,190 L440,190"/>
          <path d="M160,250 L440,250"/>
          <path d="M160,310 L440,310"/>
          <path d="M160,370 L440,370"/>
        </g>
        <g stroke-width="3">
          <path d="M220,120 L220,420"/>
          <path d="M300,110 L300,430"/>
          <path d="M380,120 L380,420"/>
        </g>
        <!-- Curved arcs -->
        <g stroke-width="2">
          <path d="M160,200 C230,150 370,150 440,200"/>
          <path d="M160,360 C230,410 370,410 440,360"/>
        </g>
        <!-- Nodes -->
        <g fill="#F8FAFC" stroke="none" opacity="0.9">
          <circle cx="220" cy="190" r="3"/>
          <circle cx="300" cy="190" r="3"/>
          <circle cx="380" cy="190" r="3"/>

          <circle cx="220" cy="250" r="3"/>
          <circle cx="300" cy="250" r="3"/>
          <circle cx="380" cy="250" r="3"/>

          <circle cx="220" cy="310" r="3"/>
          <circle cx="300" cy="310" r="3"/>
          <circle cx="380" cy="310" r="3"/>

          <circle cx="220" cy="370" r="3"/>
          <circle cx="300" cy="370" r="3"/>
          <circle cx="380" cy="370" r="3"/>
        </g>
      </g>

      <!-- Central code crest: angle brackets and braces -->
      <g transform="translate(300,290)">
        <use href="#brackets"/>
        <g stroke="#FBBF24" stroke-width="10" stroke-linecap="round" stroke-linejoin="round" opacity="0.95">
          <path d="M-110,-60 C-130,-20 -130,20 -110,60"/>
          <path d="M110,-60 C130,-20 130,20 110,60"/>
        </g>
      </g>
    </g>
  </g>

  <!-- Top ribbon with title -->
  <g transform="translate(300,150)" filter="url(#ds)">
    <path d="M-140,0
             c-20,0 -40,18 -52,28
             c12,8 32,25 52,25
             h280
             c20,0 40,-17 52,-25
             c-12,-10 -32,-28 -52,-28
             Z"
          fill="url(#gold)" stroke="#7C4A0E" stroke-width="2"/>
    <text x="0" y="34" text-anchor="middle" font-family="ui-serif, system-ui, -apple-system, Segoe UI, Roboto, Arial" font-size="24" font-weight="700" fill="#0B1220" letter-spacing="1.2">
      VAS3K
    </text>
  </g>

  <g transform="translate(300,365)" filter="url(#ds)">
    <path d="M-140,0
             c-20,0 -40,18 -52,28
             c12,8 32,25 52,25
             h280
             c20,0 40,-17 52,-25
             c-12,-10 -32,-28 -52,-28
             Z"
          fill="url(#gold)" stroke="#7C4A0E" stroke-width="2"/>
    <text x="0" y="34" text-anchor="middle" font-family="ui-serif, system-ui, -apple-system, Segoe UI, Roboto, Arial" font-size="24" font-weight="700" fill="#0B1220" letter-spacing="1.2">
      LAND
    </text>
  </g>

  <!-- Bottom scroll with motto in Cyrillic -->
  <!-- <g transform="translate(300,620)" filter="url(#ds)">
    <path d="M-200,0
             c30,0 30,-34 60,-34
             h280
             c30,0 30,34 60,34
             c-30,0 -30,34 -60,34
             h-280
             c-30,0 -30,-34 -60,-34
             Z"
          fill="url(#gold)" stroke="#7C4A0E" stroke-width="2"/>
    <text x="0" y="10" text-anchor="middle" font-family="ui-sans-serif, system-ui, -apple-system, Segoe UI, Roboto, Arial" font-size="10" font-weight="700" fill="#0B1220" letter-spacing="1">
      Credimus tantum in 
      moderatione et collaboratione.
    </text>
  </g> -->

  <!-- Subtle stars -->
  <g fill="#F8FAFC" opacity="0.6">
    <circle cx="90" cy="90" r="1.6"/>
    <circle cx="520" cy="120" r="1.4"/>
    <circle cx="70" cy="260" r="1.2"/>
    <circle cx="530" cy="260" r="1.2"/>
    <circle cx="300" cy="40" r="1.2"/>
  </g>
</svg>